<svg width="41" height="67" viewBox="0 0 41 67" fill="none" xmlns="http://www.w3.org/2000/svg">
<path d="M5.49425 66.2853C5.10255 66.6791 4.465 66.6782 4.07437 66.2834L0.695771 62.8682C0.310303 62.4786 0.310303 61.8513 0.695772 61.4617L20.5 41.4433L40.3042 61.4617C40.6897 61.8513 40.6897 62.4786 40.3042 62.8682L36.9256 66.2834C36.535 66.6782 35.8975 66.6791 35.5058 66.2853L20.5 51.1997L5.49425 66.2853ZM5.49425 45.5637C5.10255 45.9574 4.465 45.9566 4.07437 45.5617L0.695771 42.1466C0.310303 41.757 0.310303 41.1296 0.695772 40.74L20.5 20.7216L40.3042 40.74C40.6897 41.1296 40.6897 41.757 40.3042 42.1466L36.9256 45.5617C36.535 45.9566 35.8975 45.9574 35.5058 45.5637L20.5 30.4781L5.49425 45.5637ZM5.49425 24.842C5.10255 25.2358 4.465 25.2349 4.07437 24.8401L0.695773 21.4249C0.310304 21.0353 0.310303 20.408 0.695772 20.0184L20.5 0L40.3042 20.0184C40.6897 20.408 40.6897 21.0353 40.3042 21.4249L36.9256 24.8401C36.535 25.2349 35.8975 25.2358 35.5058 24.842L20.5 9.75644L5.49425 24.842Z" fill="#FED934"/>
</svg>
