<svg width="38" height="38" viewBox="0 0 38 38" fill="none" xmlns="http://www.w3.org/2000/svg">
<path d="M8.44444 38V33.7778H16.8889V27.2333C15.1648 26.8463 13.6255 26.1162 12.2708 25.0431C10.9162 23.9699 9.92222 22.6241 9.28889 21.0056C6.65 20.6889 4.44213 19.5366 2.66528 17.5486C0.888426 15.5606 0 13.2296 0 10.5556V8.44444C0 7.28333 0.413426 6.28935 1.24028 5.4625C2.06713 4.63565 3.06111 4.22222 4.22222 4.22222H8.44444V0H29.5556V4.22222H33.7778C34.9389 4.22222 35.9329 4.63565 36.7597 5.4625C37.5866 6.28935 38 7.28333 38 8.44444V10.5556C38 13.2296 37.1116 15.5606 35.3347 17.5486C33.5579 19.5366 31.35 20.6889 28.7111 21.0056C28.0778 22.6241 27.0838 23.9699 25.7292 25.0431C24.3745 26.1162 22.8352 26.8463 21.1111 27.2333V33.7778H29.5556V38H8.44444ZM8.44444 16.4667V8.44444H4.22222V10.5556C4.22222 11.8926 4.60926 13.0977 5.38333 14.1708C6.15741 15.244 7.17778 16.0093 8.44444 16.4667ZM19 23.2222C20.7593 23.2222 22.2546 22.6065 23.4861 21.375C24.7176 20.1435 25.3333 18.6481 25.3333 16.8889V4.22222H12.6667V16.8889C12.6667 18.6481 13.2824 20.1435 14.5139 21.375C15.7454 22.6065 17.2407 23.2222 19 23.2222ZM29.5556 16.4667C30.8222 16.0093 31.8426 15.244 32.6167 14.1708C33.3907 13.0977 33.7778 11.8926 33.7778 10.5556V8.44444H29.5556V16.4667Z" fill="#3D3843"/>
</svg>
