<svg width="45" height="38" viewBox="0 0 45 38" fill="none" xmlns="http://www.w3.org/2000/svg">
<path d="M9.24107 38C8.3196 38 7.50052 37.725 6.78382 37.175C6.06712 36.625 5.57226 35.9167 5.29923 35.05L0.0775648 16.55C-0.0930778 15.9167 0.0178399 15.3333 0.410318 14.8C0.802796 14.2667 1.34032 14 2.02289 14H11.7495L20.7594 0.9C20.9301 0.633333 21.169 0.416667 21.4761 0.25C21.7833 0.0833333 22.1075 0 22.4488 0C22.7901 0 23.1143 0.0833333 23.4215 0.25C23.7286 0.416667 23.9675 0.633333 24.1382 0.9L33.1481 14H42.9771C43.6597 14 44.1972 14.2667 44.5897 14.8C44.9822 15.3333 45.0931 15.9167 44.9224 16.55L39.7008 35.05C39.4277 35.9167 38.9329 36.625 38.2162 37.175C37.4995 37.725 36.6804 38 35.7589 38H9.24107ZM9.18988 34H35.8101L40.3151 18H4.68491L9.18988 34ZM22.5 30C23.6262 30 24.5904 29.6083 25.3924 28.825C26.1944 28.0417 26.5954 27.1 26.5954 26C26.5954 24.9 26.1944 23.9583 25.3924 23.175C24.5904 22.3917 23.6262 22 22.5 22C21.3738 22 20.4096 22.3917 19.6076 23.175C18.8056 23.9583 18.4046 24.9 18.4046 26C18.4046 27.1 18.8056 28.0417 19.6076 28.825C20.4096 29.6083 21.3738 30 22.5 30ZM16.7152 14H28.2336L22.4488 5.6L16.7152 14Z" fill="#3D3843"/>
</svg>
