<svg width="31" height="39" viewBox="0 0 31 39" fill="none" xmlns="http://www.w3.org/2000/svg">
<path d="M3.875 39C2.80937 39 1.89714 38.6181 1.13828 37.8544C0.379427 37.0906 0 36.1725 0 35.1V11.7C0 10.6275 0.379427 9.70937 1.13828 8.94562C1.89714 8.18187 2.80937 7.8 3.875 7.8H7.75C7.75 5.655 8.50885 3.81875 10.0266 2.29125C11.5443 0.76375 13.3687 0 15.5 0C17.6312 0 19.4557 0.76375 20.9734 2.29125C22.4911 3.81875 23.25 5.655 23.25 7.8H27.125C28.1906 7.8 29.1029 8.18187 29.8617 8.94562C30.6206 9.70937 31 10.6275 31 11.7V35.1C31 36.1725 30.6206 37.0906 29.8617 37.8544C29.1029 38.6181 28.1906 39 27.125 39H3.875ZM3.875 35.1H27.125V11.7H23.25V15.6C23.25 16.1525 23.0643 16.6156 22.693 16.9894C22.3216 17.3631 21.8615 17.55 21.3125 17.55C20.7635 17.55 20.3034 17.3631 19.932 16.9894C19.5607 16.6156 19.375 16.1525 19.375 15.6V11.7H11.625V15.6C11.625 16.1525 11.4393 16.6156 11.068 16.9894C10.6966 17.3631 10.2365 17.55 9.6875 17.55C9.13854 17.55 8.67839 17.3631 8.30703 16.9894C7.93568 16.6156 7.75 16.1525 7.75 15.6V11.7H3.875V35.1ZM11.625 7.8H19.375C19.375 6.7275 18.9956 5.80937 18.2367 5.04562C17.4779 4.28187 16.5656 3.9 15.5 3.9C14.4344 3.9 13.5221 4.28187 12.7633 5.04562C12.0044 5.80937 11.625 6.7275 11.625 7.8Z" fill="#3D3843"/>
</svg>
