<svg width="100" height="100" viewBox="0 0 100 100" fill="none" xmlns="http://www.w3.org/2000/svg">
<rect width="100" height="100" rx="10" fill="#3D3843"/>
<path d="M35.4942 82.2853C35.1025 82.6791 34.465 82.6782 34.0744 82.2834L30.6958 78.8682C30.3103 78.4786 30.3103 77.8513 30.6958 77.4617L50.5 57.4433L70.3042 77.4617C70.6897 77.8513 70.6897 78.4786 70.3042 78.8682L66.9256 82.2834C66.535 82.6782 65.8975 82.6791 65.5058 82.2853L50.5 67.1997L35.4942 82.2853ZM35.4942 61.5637C35.1025 61.9574 34.465 61.9566 34.0744 61.5617L30.6958 58.1466C30.3103 57.757 30.3103 57.1296 30.6958 56.74L50.5 36.7216L70.3042 56.74C70.6897 57.1296 70.6897 57.757 70.3042 58.1466L66.9256 61.5617C66.535 61.9566 65.8975 61.9574 65.5058 61.5637L50.5 46.4781L35.4942 61.5637ZM35.4942 40.842C35.1025 41.2358 34.465 41.2349 34.0744 40.8401L30.6958 37.4249C30.3103 37.0353 30.3103 36.408 30.6958 36.0184L50.5 16L70.3042 36.0184C70.6897 36.408 70.6897 37.0353 70.3042 37.4249L66.9256 40.8401C66.535 41.2349 65.8975 41.2358 65.5058 40.842L50.5 25.7564L35.4942 40.842Z" fill="#FED934"/>
</svg>
